<?xml version="1.0" encoding="UTF-8" standalone="no"?>
<!-- Created with Inkscape (http://www.inkscape.org/) -->

<svg
   xmlns:dc="http://purl.org/dc/elements/1.1/"
   xmlns:cc="http://creativecommons.org/ns#"
   xmlns:rdf="http://www.w3.org/1999/02/22-rdf-syntax-ns#"
   xmlns:svg="http://www.w3.org/2000/svg"
   xmlns="http://www.w3.org/2000/svg"
   xmlns:sodipodi="http://sodipodi.sourceforge.net/DTD/sodipodi-0.dtd"
   xmlns:inkscape="http://www.inkscape.org/namespaces/inkscape"
   width="32"
   height="32"
   id="svg2"
   version="1.1"
   inkscape:version="0.48.3.1 r9886"
   sodipodi:docname="d6.svg">
  <defs
     id="defs4">
    <inkscape:perspective
       sodipodi:type="inkscape:persp3d"
       inkscape:vp_x="0 : 16 : 1"
       inkscape:vp_y="0 : 1000 : 0"
       inkscape:vp_z="49.766058 : 13.525126 : 1"
       inkscape:persp3d-origin="16 : 10.666667 : 1"
       id="perspective2985" />
  </defs>
  <sodipodi:namedview
     id="base"
     pagecolor="#ffffff"
     bordercolor="#666666"
     borderopacity="1.0"
     inkscape:pageopacity="0.0"
     inkscape:pageshadow="2"
     inkscape:zoom="5.656854"
     inkscape:cx="43.479809"
     inkscape:cy="13.92117"
     inkscape:document-units="px"
     inkscape:current-layer="layer1"
     showgrid="false"
     inkscape:window-width="1022"
     inkscape:window-height="558"
     inkscape:window-x="0"
     inkscape:window-y="16"
     inkscape:window-maximized="0" />
  <metadata
     id="metadata7">
    <rdf:RDF>
      <cc:Work
         rdf:about="">
        <dc:format>image/svg+xml</dc:format>
        <dc:type
           rdf:resource="http://purl.org/dc/dcmitype/StillImage" />
        <dc:title />
      </cc:Work>
    </rdf:RDF>
  </metadata>
  <g
     inkscape:label="Layer 1"
     inkscape:groupmode="layer"
     id="layer1"
     transform="translate(0,-1020.3622)">
    <rect
       style="fill:#006b00;fill-opacity:1"
       id="rect3045-7"
       width="23.90056"
       height="23.630447"
       x="-903.67621"
       y="507.23441"
       rx="2.3900557"
       ry="2.3630445"
       transform="matrix(0.48736668,-0.87319741,0.86790387,0.4967322,0,0)" />
    <g
       id="g3557"
       transform="matrix(0.34648145,-0.58337136,0.58337136,0.34648145,-595.56124,687.5074)">
      <rect
         ry="3"
         rx="3"
         y="1021.3622"
         x="1"
         height="30"
         width="30"
         id="rect3045"
         style="fill:#00ff00" />
      <g
         inkscape:transform-center-y="4.9497477"
         inkscape:transform-center-x="-2.1213204"
         transform="matrix(0.59779687,0.59779687,-0.59779687,0.59779687,625.75716,402.06275)"
         id="g3526">
        <path
           sodipodi:type="arc"
           style="fill:#000000"
           id="path3049"
           sodipodi:cx="-9.7227182"
           sodipodi:cy="10.786797"
           sodipodi:rx="4.3310289"
           sodipodi:ry="4.1542525"
           d="m -5.3916893,10.786797 c 0,2.29433 -1.9390677,4.154252 -4.3310289,4.154252 -2.3919608,0 -4.3310288,-1.859922 -4.3310288,-4.154252 0,-2.2943307 1.939068,-4.154253 4.3310288,-4.154253 2.3919612,0 4.3310289,1.8599223 4.3310289,4.154253 z"
           transform="matrix(1.0612245,0,0,1.0957447,19.24521,1031.4829)" />
        <path
           sodipodi:type="arc"
           style="fill:#000000"
           id="path3049-6"
           sodipodi:cx="-9.7227182"
           sodipodi:cy="10.786797"
           sodipodi:rx="4.3310289"
           sodipodi:ry="4.1542525"
           d="m -5.3916893,10.786797 c 0,2.29433 -1.9390677,4.154252 -4.3310289,4.154252 -2.3919608,0 -4.3310288,-1.859922 -4.3310288,-4.154252 0,-2.2943307 1.939068,-4.154253 4.3310288,-4.154253 2.3919612,0 4.3310289,1.8599223 4.3310289,4.154253 z"
           transform="matrix(0.98979593,0,0,1.0106383,25.931157,1024.5786)" />
        <path
           sodipodi:type="arc"
           style="fill:#000000"
           id="path3049-6-4"
           sodipodi:cx="-9.7227182"
           sodipodi:cy="10.786797"
           sodipodi:rx="4.3310289"
           sodipodi:ry="4.1542525"
           d="m -5.3916893,10.786797 c 0,2.29433 -1.9390677,4.154252 -4.3310289,4.154252 -2.3919608,0 -4.3310288,-1.859922 -4.3310288,-4.154252 0,-2.2943307 1.939068,-4.154253 4.3310288,-4.154253 2.3919612,0 4.3310289,1.8599223 4.3310289,4.154253 z"
           transform="matrix(0.89795919,0,0,0.96808511,32.109323,1017.7012)" />
      </g>
      <g
         id="g3531"
         transform="matrix(0.58262809,0.58262809,-0.58262809,0.58262809,610.0543,429.2119)"
         inkscape:transform-center-x="-2.0674964"
         inkscape:transform-center-y="4.8241469">
        <path
           transform="matrix(1.0612245,0,0,1.0957447,19.24521,1031.4829)"
           d="m -5.3916893,10.786797 c 0,2.29433 -1.9390677,4.154252 -4.3310289,4.154252 -2.3919608,0 -4.3310288,-1.859922 -4.3310288,-4.154252 0,-2.2943307 1.939068,-4.154253 4.3310288,-4.154253 2.3919612,0 4.3310289,1.8599223 4.3310289,4.154253 z"
           sodipodi:ry="4.1542525"
           sodipodi:rx="4.3310289"
           sodipodi:cy="10.786797"
           sodipodi:cx="-9.7227182"
           id="path3533"
           style="fill:#000000"
           sodipodi:type="arc" />
        <path
           transform="matrix(0.98979593,0,0,1.0106383,25.931157,1024.5786)"
           d="m -5.3916893,10.786797 c 0,2.29433 -1.9390677,4.154252 -4.3310289,4.154252 -2.3919608,0 -4.3310288,-1.859922 -4.3310288,-4.154252 0,-2.2943307 1.939068,-4.154253 4.3310288,-4.154253 2.3919612,0 4.3310289,1.8599223 4.3310289,4.154253 z"
           sodipodi:ry="4.1542525"
           sodipodi:rx="4.3310289"
           sodipodi:cy="10.786797"
           sodipodi:cx="-9.7227182"
           id="path3535"
           style="fill:#000000"
           sodipodi:type="arc" />
        <path
           transform="matrix(0.89795919,0,0,0.96808511,32.109323,1017.7012)"
           d="m -5.3916893,10.786797 c 0,2.29433 -1.9390677,4.154252 -4.3310289,4.154252 -2.3919608,0 -4.3310288,-1.859922 -4.3310288,-4.154252 0,-2.2943307 1.939068,-4.154253 4.3310288,-4.154253 2.3919612,0 4.3310289,1.8599223 4.3310289,4.154253 z"
           sodipodi:ry="4.1542525"
           sodipodi:rx="4.3310289"
           sodipodi:cy="10.786797"
           sodipodi:cx="-9.7227182"
           id="path3537"
           style="fill:#000000"
           sodipodi:type="arc" />
      </g>
    </g>
  </g>
</svg>
