<?xml version="1.0" encoding="UTF-8" standalone="no"?>
<!-- Created with Inkscape (http://www.inkscape.org/) -->

<svg
   xmlns:dc="http://purl.org/dc/elements/1.1/"
   xmlns:cc="http://creativecommons.org/ns#"
   xmlns:rdf="http://www.w3.org/1999/02/22-rdf-syntax-ns#"
   xmlns:svg="http://www.w3.org/2000/svg"
   xmlns="http://www.w3.org/2000/svg"
   xmlns:sodipodi="http://sodipodi.sourceforge.net/DTD/sodipodi-0.dtd"
   xmlns:inkscape="http://www.inkscape.org/namespaces/inkscape"
   width="150"
   height="150"
   id="svg2"
   version="1.1"
   inkscape:version="0.48.3.1 r9886"
   sodipodi:docname="video.svg">
  <defs
     id="defs4" />
  <sodipodi:namedview
     id="base"
     pagecolor="#ffffff"
     bordercolor="#666666"
     borderopacity="1.0"
     inkscape:pageopacity="0.0"
     inkscape:pageshadow="2"
     inkscape:zoom="1.979899"
     inkscape:cx="27.001186"
     inkscape:cy="75.735081"
     inkscape:document-units="px"
     inkscape:current-layer="layer1"
     showgrid="false"
     inkscape:window-width="1024"
     inkscape:window-height="574"
     inkscape:window-x="0"
     inkscape:window-y="0"
     inkscape:window-maximized="1" />
  <metadata
     id="metadata7">
    <rdf:RDF>
      <cc:Work
         rdf:about="">
        <dc:format>image/svg+xml</dc:format>
        <dc:type
           rdf:resource="http://purl.org/dc/dcmitype/StillImage" />
        <dc:title></dc:title>
      </cc:Work>
    </rdf:RDF>
  </metadata>
  <g
     inkscape:label="Ebene 1"
     inkscape:groupmode="layer"
     id="layer1"
     transform="translate(0,-902.3622)">
    <path
       sodipodi:type="arc"
       style="fill:#737373;fill-opacity:1;stroke:none"
       id="path4659"
       sodipodi:cx="78.791901"
       sodipodi:cy="52.015202"
       sodipodi:rx="33.335033"
       sodipodi:ry="30.809652"
       d="m 112.12693,52.015202 a 33.335033,30.809652 0 1 1 -66.670063,0 33.335033,30.809652 0 1 1 66.670063,0 z"
       transform="translate(-3.5355339,882.66422)" />
    <path
       sodipodi:type="star"
       style="fill:#737373;fill-opacity:1;stroke:none"
       id="path4663"
       sodipodi:sides="3"
       sodipodi:cx="40.406101"
       sodipodi:cy="116.66497"
       sodipodi:r1="59.335178"
       sodipodi:r2="29.667591"
       sodipodi:arg1="0.53603997"
       sodipodi:arg2="1.5832375"
       inkscape:flatsided="false"
       inkscape:rounded="0.05"
       inkscape:randomized="0"
       d="m 91.418806,146.96955 c -1.312227,2.20891 -48.812705,-0.60732 -51.381795,-0.63928 -2.56909,-0.032 -50.124932,1.60159 -51.381796,-0.63929 -1.256863,-2.24088 24.932305,-41.96938 26.244532,-44.1783 1.312227,-2.208913 23.675446,-44.21026 26.244536,-44.178296 2.569089,0.03196 23.880399,42.576701 25.137262,44.817576 1.256864,2.24088 26.449487,42.60867 25.137261,44.81759 z"
       transform="translate(33.335034,875.08808)"
       inkscape:transform-center-x="0.36623983"
       inkscape:transform-center-y="-14.090504" />
    <path
       sodipodi:type="star"
       style="fill:#737373;fill-opacity:1;stroke:none"
       id="path4663-2"
       sodipodi:sides="3"
       sodipodi:cx="40.406101"
       sodipodi:cy="116.66497"
       sodipodi:r1="59.335178"
       sodipodi:r2="29.667591"
       sodipodi:arg1="0.53603997"
       sodipodi:arg2="1.5832375"
       inkscape:flatsided="false"
       inkscape:rounded="0.05"
       inkscape:randomized="0"
       d="m 91.418806,146.96955 c -1.312227,2.20891 -48.812705,-0.60732 -51.381795,-0.63928 -2.56909,-0.032 -50.124932,1.60159 -51.381796,-0.63929 -1.256863,-2.24088 24.932305,-41.96938 26.244532,-44.1783 1.312227,-2.208913 23.675446,-44.21026 26.244536,-44.178296 2.569089,0.03196 23.880399,42.576701 25.137262,44.817576 1.256864,2.24088 26.449487,42.60867 25.137261,44.81759 z"
       transform="translate(31.175893,902.31056)"
       inkscape:transform-center-x="0.36623983"
       inkscape:transform-center-y="-14.090504" />
    <path
       sodipodi:type="arc"
       style="fill:#000000;fill-opacity:1;stroke:none"
       id="path4683"
       sodipodi:cx="63.892147"
       sodipodi:cy="23.730932"
       sodipodi:rx="3.2829957"
       sodipodi:ry="3.5355339"
       d="m 67.175143,23.730932 a 3.2829957,3.5355339 0 1 1 -6.565992,0 3.2829957,3.5355339 0 1 1 6.565992,0 z"
       transform="translate(0,902.3622)" />
    <path
       transform="translate(22.980972,901.85712)"
       sodipodi:type="arc"
       style="fill:#000000;fill-opacity:1;stroke:none"
       id="path4683-6"
       sodipodi:cx="63.892147"
       sodipodi:cy="23.730932"
       sodipodi:rx="3.2829957"
       sodipodi:ry="3.5355339"
       d="m 67.175143,23.730932 a 3.2829957,3.5355339 0 1 1 -6.565992,0 3.2829957,3.5355339 0 1 1 6.565992,0 z" />
    <path
       transform="translate(11.869293,914.48403)"
       sodipodi:type="arc"
       style="fill:#000000;fill-opacity:1;stroke:none"
       id="path4683-6-9"
       sodipodi:cx="63.892147"
       sodipodi:cy="23.730932"
       sodipodi:rx="3.2829957"
       sodipodi:ry="3.5355339"
       d="m 67.175143,23.730932 a 3.2829957,3.5355339 0 1 1 -6.565992,0 3.2829957,3.5355339 0 1 1 6.565992,0 z" />
    <path
       transform="matrix(3.5384616,0,0,1,-150.571,927.61602)"
       sodipodi:type="arc"
       style="fill:#000000;fill-opacity:1;stroke:none"
       id="path4683-6-9-2"
       sodipodi:cx="63.892147"
       sodipodi:cy="23.730932"
       sodipodi:rx="3.2829957"
       sodipodi:ry="3.5355339"
       d="m 67.175143,23.730932 a 3.2829957,3.5355339 0 1 1 -6.565992,0 3.2829957,3.5355339 0 1 1 6.565992,0 z" />
  </g>
</svg>
