<?xml version="1.0" encoding="UTF-8" standalone="no"?>
<!-- Created with Inkscape (http://www.inkscape.org/) -->

<svg
   xmlns:dc="http://purl.org/dc/elements/1.1/"
   xmlns:cc="http://creativecommons.org/ns#"
   xmlns:rdf="http://www.w3.org/1999/02/22-rdf-syntax-ns#"
   xmlns:svg="http://www.w3.org/2000/svg"
   xmlns="http://www.w3.org/2000/svg"
   xmlns:sodipodi="http://sodipodi.sourceforge.net/DTD/sodipodi-0.dtd"
   xmlns:inkscape="http://www.inkscape.org/namespaces/inkscape"
   width="32"
   height="32"
   id="svg2"
   version="1.1"
   inkscape:version="0.48.3.1 r9886"
   sodipodi:docname="search.svg">
  <defs
     id="defs4" />
  <sodipodi:namedview
     id="base"
     pagecolor="#ffffff"
     bordercolor="#666666"
     borderopacity="1.0"
     inkscape:pageopacity="0.0"
     inkscape:pageshadow="2"
     inkscape:zoom="11.2"
     inkscape:cx="6.1401319"
     inkscape:cy="15.125928"
     inkscape:document-units="px"
     inkscape:current-layer="layer1"
     showgrid="false"
     inkscape:window-width="1058"
     inkscape:window-height="558"
     inkscape:window-x="220"
     inkscape:window-y="20"
     inkscape:window-maximized="0" />
  <metadata
     id="metadata7">
    <rdf:RDF>
      <cc:Work
         rdf:about="">
        <dc:format>image/svg+xml</dc:format>
        <dc:type
           rdf:resource="http://purl.org/dc/dcmitype/StillImage" />
        <dc:title></dc:title>
      </cc:Work>
    </rdf:RDF>
  </metadata>
  <g
     inkscape:label="Ebene 1"
     inkscape:groupmode="layer"
     id="layer1"
     transform="translate(0,-1020.3622)">
    <rect
       style="fill:#00dd00;fill-opacity:1;fill-rule:nonzero;stroke:none"
       id="rect2985"
       width="29.732143"
       height="30.267857"
       x="1.1339283"
       y="1021.2283"
       rx="5"
       ry="5" />
    <g
       id="g3053"
       transform="matrix(0.7427305,0,0,0.7427305,3.1171117,265.88594)">
      <path
         id="path3041"
         transform="translate(0,1020.3622)"
         d="m 19.15625,13.8125 c -5.719393,0.537469 -15.9302343,1.240474 -16.375,1.59375 -0.5621317,0.4464 0.46875,2.3125 0.46875,2.3125 l 1.03125,3.5625 c 0,0 1.5631137,10.1786 2.5,1.25 C 7.7181362,13.60295 8.1875,22.4375 8.1875,22.4375 L 11,22.28125 c 0,0 -0.936395,-3.30805 0.75,-3.84375 1.077135,-0.342354 4.594043,-0.49158 7.46875,-0.5625 -0.344558,-0.625019 -0.5625,-1.342481 -0.5625,-2.09375 0,-0.71132 0.189045,-1.36871 0.5,-1.96875 z"
         style="fill:#000000;stroke:#000000;stroke-width:1.02435958px;stroke-linecap:butt;stroke-linejoin:miter;stroke-opacity:1"
         inkscape:connector-curvature="0" />
      <path
         inkscape:connector-curvature="0"
         id="path3043"
         d="m 24.808036,1027.639 c -4.290069,0 -7.75,3.5422 -7.75,7.9063 0,4.364 3.459931,7.875 7.75,7.875 4.290069,0 7.78125,-3.511 7.78125,-7.875 0,-4.3641 -3.491181,-7.9063 -7.78125,-7.9063 z m 0,3.0313 c 2.787333,0 5.0625,2.2896 5.0625,5.125 0,2.8354 -2.275167,5.125 -5.0625,5.125 -2.787333,0 -5.03125,-2.2896 -5.03125,-5.125 0,-2.8354 2.243917,-5.125 5.03125,-5.125 z"
         style="fill:#000000;fill-opacity:1;fill-rule:nonzero;stroke:none" />
    </g>
  </g>
</svg>
